<svg width="44.2" height="44.2" xmlns="http://www.w3.org/2000/svg">

 <g>
  <title>background</title>
  <rect fill="none" id="canvas_background" height="46.2" width="46.2" y="-1" x="-1"/>
 </g>
 <g>
  <title>Layer 1</title>
  <path id="svg_1" d="m22.07547,0.07547c-12.15,0 -22,9.85 -22,22c0,12.15 9.85,22 22,22c12.15,0 22,-9.85 22,-22c0,-12.15 -9.85,-22 -22,-22zm-4,8l17,0l-1.01953,0.88086c0,0.04 0.01953,0.07914 0.01953,0.11914l0,5.2793c0.6,0.34 1,0.9807 1,1.7207l0,6c0,1.1 -0.9,2 -2,2c-1.1,0 -2,-0.9 -2,-2l0,-6c0,-0.74 0.4,-1.3807 1,-1.7207l0,-3.70899l-3.58984,3.08008c0.35,0.7 0.58984,1.54984 0.58984,2.58984c0,2.72 -1.5193,4.06954 -3.0293,5.26954c-0.47,0.48 -1.02148,1.00054 -1.02148,1.81054c0,0.8 0.55117,1.25031 0.95117,1.57032l1.28906,1.02929c1.59,1.36 3.03125,2.61063 3.03125,5.14063c0,3.45 -3.29023,6.93945 -9.49023,6.93945c-5.23,0 -7.75,-2.53 -7.75,-5.25c0,-1.32 0.6493,-3.19047 2.7793,-4.48047c2.23,-1.39 5.26062,-1.57945 6.89062,-1.68945c-0.51,-0.66 -1.08984,-1.35 -1.08984,-2.5c0,-0.61 0.18914,-0.97969 0.36914,-1.42969c-0.4,0.04 -0.80016,0.08008 -1.16016,0.08008c-3.8,0 -5.97023,-2.88047 -5.99023,-5.73047l-6.7793,0l10,-9zm3.26953,3.24023c-0.93,0 -1.93953,0.47071 -2.51953,1.22071c-0.61,0.76 -0.80078,1.74922 -0.80078,2.69922c0,2.46 1.42172,6.53906 4.51172,6.53906c0.91,0 1.87898,-0.4393 2.45898,-1.0293c0.82,-0.85 0.90039,-2.01992 0.90039,-2.66992c0,-2.65 -1.55078,-6.75977 -4.55078,-6.75977zm1.76953,16.36915c-0.32,0 -2.26929,0.06984 -3.77929,0.58984c-0.8,0.3 -3.09961,1.17125 -3.09961,3.78125c0,2.61 2.47984,4.48047 6.33984,4.48047c3.47,0 5.30078,-1.70071 5.30078,-3.97071c0,-1.87 -1.17992,-2.85984 -3.91992,-4.83984c-0.29,-0.04 -0.4718,-0.04101 -0.8418,-0.04101z"/>
 </g>
</svg>