<?xml version="1.0" encoding="UTF-8" standalone="no"?>
<!-- Created with Inkscape (http://www.inkscape.org/) -->

<svg
   xmlns:dc="http://purl.org/dc/elements/1.1/"
   xmlns:cc="http://creativecommons.org/ns#"
   xmlns:rdf="http://www.w3.org/1999/02/22-rdf-syntax-ns#"
   xmlns:svg="http://www.w3.org/2000/svg"
   xmlns="http://www.w3.org/2000/svg"
   xmlns:sodipodi="http://sodipodi.sourceforge.net/DTD/sodipodi-0.dtd"
   xmlns:inkscape="http://www.inkscape.org/namespaces/inkscape"
   width="564"
   height="564"
   viewBox="0 0 149.225 149.225"
   version="1.1"
   id="svg223"
   inkscape:version="0.92.1 r15371"
   sodipodi:docname="researchgate.svg">
  <defs
     id="defs217" />
  <sodipodi:namedview
     id="base"
     pagecolor="#ffffff"
     bordercolor="#666666"
     borderopacity="1.0"
     inkscape:pageopacity="0.0"
     inkscape:pageshadow="2"
     inkscape:zoom="0.98994949"
     inkscape:cx="271.13121"
     inkscape:cy="301.62794"
     inkscape:document-units="mm"
     inkscape:current-layer="layer1"
     showgrid="false"
     units="px"
     inkscape:window-width="1920"
     inkscape:window-height="1017"
     inkscape:window-x="-8"
     inkscape:window-y="-8"
     inkscape:window-maximized="1" />
  <metadata
     id="metadata220">
    <rdf:RDF>
      <cc:Work
         rdf:about="">
        <dc:format>image/svg+xml</dc:format>
        <dc:type
           rdf:resource="http://purl.org/dc/dcmitype/StillImage" />
        <dc:title></dc:title>
      </cc:Work>
    </rdf:RDF>
  </metadata>
  <g
     inkscape:label="Layer 1"
     inkscape:groupmode="layer"
     id="layer1"
     transform="translate(0,-147.77498)">
    <rect
       id="backgroundrect"
       width="26.458332%"
       height="26.458332%"
       x="0.096710056"
       y="148.15332"
       class="selected"
       style="fill:none;stroke:none;stroke-width:0.26458332" />
    <g
       transform="matrix(0.26458333,0,0,0.26458333,0.09669946,148.15334)"
       class="currentLayer"
       id="g175">
      <title
         id="title167">Layer 1</title>
      <g
         id="svg_1">
        <path
           class="st0"
           d="m 247.1,321 c 1.8,3.7 3.1,7.5 5.3,10.6 16,22.7 31.8,45.6 48.7,67.6 9.1,11.9 20.8,21.5 36.3,24.7 1.7,0.4 4,3.3 4.1,5.1 0.2,3.4 -2.4,5.1 -5.9,5.5 -27.7,3.1 -50,-5.1 -66.5,-28.7 -17.4,-25 -35.3,-49.7 -50,-76.4 -0.7,-1.4 -2.6,-2.9 -4,-3 -8,-0.7 -15.9,-1.1 -23.9,-1.5 -4.5,-0.3 -6.2,1.7 -6.1,6.3 0.2,15.5 -0.1,31 0.2,46.5 0.2,9.8 1.1,19.6 2,29.4 0.7,7.6 7.4,13.3 16.3,14.3 3.5,0.4 7,0.4 10.4,1 2.1,0.4 4.2,1.3 5.9,2.5 3.1,2.4 2.2,6.1 -1.5,7.2 -1.3,0.4 -2.6,0.4 -4,0.4 -26.8,0 -53.7,0 -80.5,0 -3,0 -6.6,0.1 -6.9,-3.9 -0.3,-4 3,-5.6 6.3,-6.5 1.9,-0.5 4,-0.5 5.9,-0.7 7.6,-0.8 15.3,-7.8 16.4,-15.3 1,-7.2 1.9,-14.5 2,-21.8 0.2,-48.2 0.1,-96.3 0.1,-144.5 0,-9 -0.8,-17.8 -5.2,-26 -2.4,-4.5 -6.4,-6 -10.6,-7.4 -3.3,-1.1 -6.7,-1.7 -10.1,-2.4 -4.1,-0.8 -5.2,-3.5 -5.1,-7.3 0.1,-2.6 1.2,-3.5 3.7,-3.4 5,0.1 10,0 15,0 20.3,0 40.7,-0.1 61,0.2 13.6,0.2 27.5,0 40.9,2.1 17.5,2.8 33.7,10.3 43.4,25.9 8,12.9 10.9,27.4 8.3,43 -4.2,25.4 -19.3,41.7 -41.3,52.9 -2.9,1.4 -6.2,2.1 -10.6,3.6 z M 187,258.5 c 0,14.7 0.1,29.3 0,44 0,3.7 1.1,5.4 5.2,5.3 10.5,-0.3 21,0.3 31.5,-0.2 13.1,-0.7 24.7,-5.6 33.3,-15.7 13.1,-15.4 15,-33.4 9.6,-52.2 -2.8,-9.6 -8.3,-18.3 -17.7,-22.5 -7.9,-3.5 -16.5,-5.9 -25.1,-6.8 -10,-1.2 -20.3,-0.1 -30.5,-0.4 -4.8,-0.2 -6.4,1.3 -6.3,6.1 0.2,14.1 0,28.2 0,42.4 z"
           id="svg_2"
           inkscape:connector-curvature="0"
           style="fill:#ffffff" />
        <path
           class="st0"
           d="m 331.3,181.4 c 0,-7.7 -0.3,-15.3 0.1,-23 0.4,-8 1.7,-15.8 5.7,-22.9 5.9,-10.4 15.8,-15.3 26.7,-18.6 17.6,-5.3 39.6,1.7 50.4,15.7 2.1,2.8 4.9,5.4 2,9.2 -2,2.5 -9.8,3.8 -12.6,2.1 -1.5,-0.9 -2.8,-2.3 -4,-3.6 -5.7,-6.6 -12.9,-10.9 -21.6,-10.9 -14.3,0.1 -26.4,8.4 -27.7,23.9 -1.3,15.4 -2,30.9 -1.7,46.3 0.3,11.3 3.8,22 15.5,27.5 9.1,4.2 27.2,1.8 33.1,-5.3 3.1,-3.8 4.9,-8.9 6.5,-13.6 1.2,-3.5 1.2,-7.5 1.6,-11.3 0.4,-3.5 -1.2,-5.4 -4.7,-5.5 -5.7,-0.1 -11.3,-0.2 -17,-0.1 -3.6,0.1 -4.9,-1.5 -4.3,-4.9 0.4,-2.5 0.6,-5.1 1.6,-7.3 0.6,-1.3 2.6,-2.6 4,-2.7 11,-0.7 22,-1.1 32.9,-1.6 3,-0.1 5.1,0.4 5.1,4.2 0.2,13.1 -0.1,26.2 -4,38.9 -4.4,14.6 -17.9,26.6 -34.4,26.9 -8.6,0.2 -17.3,-0.7 -25.9,-1.8 -3,-0.4 -6.2,-2.4 -8.6,-4.5 -11.7,-10.4 -20.1,-22.4 -19.1,-39.1 0.6,-6 0.3,-12 0.4,-18 -0.1,0 -0.1,0 0,0 z"
           id="svg_3"
           inkscape:connector-curvature="0"
           style="fill:#ffffff" />
      </g>
      <g
         id="svg_4">
        <path
           d="m 564,258 c 0,14.3 0,28.7 0,43 -0.6,2.2 -1.5,4.3 -1.8,6.5 -1.5,10 -2.3,20.1 -4.4,30 -2.9,13.5 -5.5,27.3 -10.4,40.1 -5.9,15.3 -13.4,30 -21.3,44.4 -20.3,37.1 -48.9,67.1 -83.3,91.3 -15.7,11 -32.4,21 -50.6,27.7 -13.9,5.1 -27.8,10.7 -42.1,14.2 -14.1,3.5 -28.8,4.6 -43.2,6.9 -1.3,0.2 -2.5,1.3 -3.8,2 -14.3,0 -28.7,0 -43,0 -1.2,-0.7 -2.3,-1.8 -3.6,-2 -11,-1.7 -22.1,-2.6 -32.9,-4.8 C 200.8,552.7 178.9,545.1 158,534.8 133.8,522.8 111.4,507.9 91.8,489.1 81.3,479 71.3,468.3 62,457.1 54.6,448.2 48.1,438.3 41.9,428.4 31.1,411.3 22.7,393.1 16.2,373.8 8.9,352.4 3.7,330.8 2,308.4 1.9,306.9 0.7,305.5 0,304 c 0,-15 0,-30 0,-45 0.7,-1.1 1.8,-2.2 2,-3.4 1.7,-11 2.3,-22.2 4.9,-32.9 3.8,-15.3 8.6,-30.5 13.8,-45.4 3.6,-10.2 7.9,-20.3 13.3,-29.6 10,-16.9 20.8,-33.3 33.6,-48.4 17.1,-20.2 36.7,-37.6 58.5,-52.2 19.8,-13.2 40.8,-24.6 63.6,-31.6 15.4,-4.7 31.2,-8 46.8,-11.6 7.1,-1.7 14.3,-2.7 21.4,-4 16,0 32,0 48,0 3.2,0.7 6.4,1.4 9.7,2 9.1,1.5 18.4,2.5 27.3,4.6 11.2,2.7 22.4,5.5 33,9.7 15.2,6 30.2,12.6 44.6,20.3 11.3,6.1 21.4,14.4 32.3,21.4 14.8,9.6 27.1,22.1 38.7,34.9 17.7,19.7 33.1,41.4 43.9,65.8 6.3,14.1 11.8,28.7 16.5,43.4 3.6,11.4 5.5,23.3 8,35 1.7,7 2.8,14 4.1,21 z m -316.9,63 c 4.4,-1.5 7.7,-2.2 10.6,-3.7 22,-11.1 37.1,-27.5 41.3,-52.9 2.6,-15.6 -0.3,-30.2 -8.3,-43 -9.7,-15.6 -25.9,-23.1 -43.4,-25.9 -13.4,-2.1 -27.2,-1.9 -40.9,-2.1 -20.3,-0.3 -40.7,-0.2 -61,-0.2 -5,0 -10,0.1 -15,0 -2.5,-0.1 -3.6,0.9 -3.7,3.4 -0.1,3.8 0.9,6.5 5.1,7.3 3.4,0.7 6.8,1.4 10.1,2.4 4.2,1.4 8.2,2.9 10.6,7.4 4.4,8.2 5.2,17 5.2,26 0.1,48.2 0.1,96.3 -0.1,144.5 0,7.3 -1,14.6 -2,21.8 -1,7.5 -8.8,14.5 -16.4,15.3 -2,0.2 -4,0.2 -5.9,0.7 -3.3,0.9 -6.6,2.5 -6.3,6.5 0.3,4 3.9,3.9 6.9,3.9 26.8,0 53.7,0 80.5,0 1.3,0 2.7,-0.1 4,-0.4 3.8,-1.1 4.6,-4.7 1.5,-7.2 -1.6,-1.3 -3.8,-2.2 -5.9,-2.5 -3.4,-0.6 -7,-0.6 -10.4,-1 -8.9,-1 -15.6,-6.7 -16.3,-14.3 -0.9,-9.8 -1.8,-19.6 -2,-29.4 -0.3,-15.5 0,-31 -0.2,-46.5 -0.1,-4.5 1.6,-6.5 6.1,-6.3 8,0.5 16,0.8 23.9,1.5 1.4,0.1 3.3,1.6 4,3 14.7,26.8 32.6,51.4 50,76.4 16.5,23.6 38.8,31.8 66.5,28.7 3.4,-0.4 6.1,-2.1 5.9,-5.5 -0.1,-1.8 -2.4,-4.7 -4.1,-5.1 -15.6,-3.2 -27.2,-12.8 -36.3,-24.7 -16.9,-22 -32.6,-45 -48.7,-67.6 -2.2,-3 -3.5,-6.7 -5.3,-10.5 z m 84.2,-139.6 c -0.1,0 -0.1,0 0,0 -0.1,6 0.2,12 -0.1,18 -1,16.7 7.5,28.7 19.1,39.1 2.4,2.1 5.6,4.1 8.6,4.5 8.6,1.1 17.2,2 25.9,1.8 16.6,-0.3 30.1,-12.4 34.4,-26.9 3.9,-12.7 4.1,-25.8 4,-38.9 0,-3.8 -2.1,-4.4 -5.1,-4.2 -11,0.5 -22,0.9 -32.9,1.6 -1.4,0.1 -3.4,1.4 -4,2.7 -1,2.2 -1.2,4.8 -1.6,7.3 -0.6,3.4 0.7,5 4.3,4.9 5.7,-0.1 11.3,0 17,0.1 3.6,0 5.2,1.9 4.7,5.5 -0.5,3.8 -0.4,7.8 -1.6,11.3 -1.6,4.8 -3.4,9.8 -6.5,13.6 -5.8,7.1 -24,9.5 -33.1,5.3 -11.7,-5.5 -15.3,-16.1 -15.5,-27.5 -0.4,-15.4 0.3,-30.9 1.7,-46.3 1.3,-15.4 13.4,-23.7 27.7,-23.9 8.6,-0.1 15.8,4.3 21.6,10.9 1.2,1.4 2.5,2.7 4,3.6 2.8,1.7 10.6,0.5 12.6,-2.1 2.9,-3.7 0.1,-6.4 -2,-9.2 -10.8,-14.1 -32.8,-21 -50.4,-15.7 -10.9,3.3 -20.8,8.2 -26.7,18.6 -4,7.1 -5.3,15 -5.7,22.9 -0.7,7.7 -0.4,15.3 -0.4,23 z"
           id="svg_5"
           inkscape:connector-curvature="0" />
        <path
           d="m 187,258.5 c 0,-14.2 0.2,-28.3 -0.1,-42.5 -0.1,-4.9 1.5,-6.3 6.3,-6.1 10.2,0.3 20.4,-0.7 30.5,0.4 8.5,1 17.2,3.4 25.1,6.8 9.4,4.2 14.9,12.9 17.7,22.5 5.4,18.8 3.5,36.8 -9.6,52.2 -8.6,10.1 -20.2,15 -33.3,15.7 -10.5,0.5 -21,0 -31.5,0.2 -4.1,0.1 -5.2,-1.5 -5.2,-5.3 0.2,-14.6 0.1,-29.2 0.1,-43.9 z"
           id="svg_6"
           inkscape:connector-curvature="0" />
      </g>
    </g>
  </g>
</svg>
